<svg width="20" height="20" viewBox="0 0 20 20" fill="none" xmlns="http://www.w3.org/2000/svg">
<circle cx="10" cy="10" r="10" fill="#D9D9D9"/>
<path d="M5.812 13C5.66267 13 5.588 12.923 5.588 12.769V8.331C5.588 8.177 5.66267 8.1 5.812 8.1C5.95667 8.1 6.029 8.177 6.029 8.331V10.284C6.25767 10.2747 6.44667 10.2443 6.596 10.193C6.75 10.137 6.87833 10.039 6.981 9.899C7.08833 9.759 7.18867 9.56067 7.282 9.304C7.37533 9.04267 7.46167 8.83267 7.541 8.674C7.625 8.51067 7.71133 8.38933 7.8 8.31C7.89333 8.226 8.003 8.17 8.129 8.142C8.25967 8.114 8.41833 8.1 8.605 8.1H8.745C8.899 8.1 8.976 8.16767 8.976 8.303C8.976 8.43833 8.899 8.506 8.745 8.506H8.605C8.48367 8.506 8.381 8.51533 8.297 8.534C8.21767 8.548 8.14767 8.58533 8.087 8.646C8.02633 8.702 7.96567 8.79533 7.905 8.926C7.84433 9.05667 7.77433 9.234 7.695 9.458C7.583 9.76133 7.46167 9.98767 7.331 10.137C7.20033 10.2863 7.037 10.3937 6.841 10.459C7.03233 10.4917 7.17933 10.5547 7.282 10.648C7.38933 10.7413 7.49433 10.8767 7.597 11.054C7.65767 11.1473 7.744 11.285 7.856 11.467C7.968 11.649 8.09167 11.8497 8.227 12.069C8.36233 12.2837 8.493 12.4937 8.619 12.699C8.675 12.783 8.696 12.853 8.682 12.909C8.668 12.965 8.62367 12.993 8.549 12.993H8.472C8.35067 12.993 8.25733 12.9393 8.192 12.832C8.07067 12.6313 7.94467 12.426 7.814 12.216C7.68333 12.006 7.56433 11.8147 7.457 11.642C7.34967 11.4647 7.268 11.334 7.212 11.25C7.13733 11.124 7.058 11.0237 6.974 10.949C6.89467 10.8697 6.78267 10.8113 6.638 10.774C6.498 10.7367 6.295 10.718 6.029 10.718V12.769C6.029 12.923 5.95667 13 5.812 13ZM10.098 13C9.9533 13 9.88097 12.923 9.88097 12.769V8.331C9.88097 8.177 9.9533 8.1 10.098 8.1C10.2426 8.1 10.315 8.177 10.315 8.331V12.251L12.982 8.254C13.052 8.15133 13.1453 8.1 13.262 8.1H13.283C13.437 8.1 13.514 8.177 13.514 8.331V12.769C13.514 12.923 13.4393 13 13.29 13C13.1406 13 13.066 12.923 13.066 12.769V8.87L10.413 12.846C10.343 12.9487 10.2496 13 10.133 13H10.098Z" fill="black"/>
</svg>
