<svg width="20" height="20" viewBox="0 0 20 20" fill="none" xmlns="http://www.w3.org/2000/svg">
<circle cx="10" cy="10" r="10" fill="#A5A5A5"/>
<path d="M5.805 13C5.66033 13 5.588 12.923 5.588 12.769V8.331C5.588 8.177 5.66033 8.1 5.805 8.1C5.94967 8.1 6.022 8.177 6.022 8.331V12.251L8.689 8.254C8.759 8.15133 8.85233 8.1 8.969 8.1H8.99C9.144 8.1 9.221 8.177 9.221 8.331V12.769C9.221 12.923 9.14633 13 8.997 13C8.84767 13 8.773 12.923 8.773 12.769V8.87L6.12 12.846C6.05 12.9487 5.95667 13 5.84 13H5.805ZM10.6107 13C10.466 13 10.3937 12.923 10.3937 12.769V8.331C10.3937 8.177 10.466 8.1 10.6107 8.1C10.7553 8.1 10.8277 8.177 10.8277 8.331V12.251L13.4947 8.254C13.5647 8.15133 13.658 8.1 13.7747 8.1H13.7957C13.9497 8.1 14.0267 8.177 14.0267 8.331V12.769C14.0267 12.923 13.952 13 13.8027 13C13.6533 13 13.5787 12.923 13.5787 12.769V8.87L10.9257 12.846C10.8557 12.9487 10.7623 13 10.6457 13H10.6107Z" fill="black"/>
</svg>
